<?xml version="1.0" encoding="UTF-8"?>
<svg width="86px" height="40px" viewBox="0 0 86 40" version="1.1" xmlns="http://www.w3.org/2000/svg" xmlns:xlink="http://www.w3.org/1999/xlink">
    <!-- Generator: Sketch 63 (92445) - https://sketch.com -->
    <title>logo footer</title>
    <desc>Created with Sketch.</desc>
    <g id="Page-1" stroke="none" stroke-width="1" fill="none" fill-rule="evenodd">
        <g id="Landing-Guides" transform="translate(-665.000000, -637.000000)" fill="#B1B1B1" fill-rule="nonzero">
            <g id="logo-footer" transform="translate(665.000000, 637.000000)">
                <polygon id="Path" points="5.11621818 4.00290909 5.11621818 7.80567273 13.5223273 7.80567273 13.5223273 11.4082909 5.11621818 11.4082909 5.11621818 18.2132364 1.11330909 18.2132364 1.11330909 0.400290909 14.5230545 0.400290909 14.5230545 4.00290909"></polygon>
                <polygon id="Path" points="59.9560727 4.00290909 59.9560727 18.2132364 56.1533091 18.2132364 56.1533091 4.00290909 50.7493818 4.00290909 50.7493818 0.400290909 65.36 0.400290909 65.36 4.00290909"></polygon>
                <path d="M7.71810909,39.6288 C5.11621818,39.6288 2.31418182,38.6280727 0.112581818,36.8267636 L2.51432727,34.0247273 C4.11549091,35.4257455 5.71665455,36.2263273 7.71810909,36.2263273 C9.31927273,36.2263273 10.32,35.6258909 10.32,34.6251636 L10.32,34.6251636 C10.32,33.6244364 9.71956364,33.2241455 6.71738182,32.4235636 C3.11476364,31.4228364 0.913163636,30.6222545 0.913163636,27.0196364 L0.913163636,27.0196364 C0.913163636,23.8173091 3.51505455,21.6157091 7.11767273,21.6157091 C9.71956364,21.6157091 11.9211636,22.4162909 13.7224727,23.8173091 L11.7210182,26.8194909 C10.1198545,25.8187636 8.51869091,25.0181818 7.11767273,25.0181818 C5.71665455,25.0181818 4.91607273,25.6186182 4.91607273,26.6193455 L4.91607273,26.6193455 C4.91607273,27.8202182 5.71665455,28.2205091 8.71883636,29.0210909 C12.3214545,30.0218182 14.3229091,31.2226909 14.3229091,34.4250182 L14.3229091,34.4250182 C14.1227636,37.6273455 11.5208727,39.6288 7.71810909,39.6288 Z" id="Path"></path>
                <polyline id="Path" points="21.9284364 21.6157091 16.5245091 21.6157091 16.5245091 18.0130909 31.3352727 18.0130909 31.3352727 21.6157091 25.9313455 21.6157091"></polyline>
                <polyline id="Path" points="25.7312 16.0116364 22.5288727 16.0116364 22.5288727 12.4090182 31.3352727 12.4090182 31.3352727 16.0116364 28.1329455 16.0116364"></polyline>
                <polyline id="Path" points="21.9284364 27.4199273 16.5245091 27.4199273 16.5245091 23.8173091 31.3352727 23.8173091 31.3352727 27.4199273 25.9313455 27.4199273"></polyline>
                <path d="M60.1562182,39.6288 C54.9524364,39.6288 51.1496727,35.6258909 51.1496727,30.4221091 L51.1496727,30.4221091 C51.1496727,25.4184727 54.9524364,21.2154182 60.3563636,21.2154182 C63.7588364,21.2154182 65.7602909,22.4162909 67.3614545,24.0174545 L64.9597091,26.8194909 C63.5586909,25.6186182 62.1576727,24.8180364 60.3563636,24.8180364 C57.3541818,24.8180364 55.1525818,27.2197818 55.1525818,30.4221091 L55.1525818,30.4221091 C55.1525818,33.4242909 57.1540364,36.0261818 60.3563636,36.0261818 C62.3578182,36.0261818 63.5586909,35.2256 64.9597091,34.0247273 L67.3614545,36.6266182 C65.7602909,38.4279273 63.5586909,39.6288 60.1562182,39.6288 Z" id="Path"></path>
                <polygon id="Path" points="80.9713455 39.4286545 75.5674182 31.8231273 73.3658182 34.0247273 73.3658182 39.4286545 69.5630545 39.4286545 69.5630545 21.6157091 73.3658182 21.6157091 73.3658182 29.4213818 80.5710545 21.6157091 85.3745455 21.6157091 78.1693091 29.2212364 85.7748364 39.4286545 80.9713455 39.4286545"></polygon>
                <rect id="Rectangle" x="21.9284364" y="29.6215273" width="3.80276364" height="9.80712727"></rect>
                <rect id="Rectangle" x="16.5245091" y="0.400290909" width="3.80276364" height="15.4112"></rect>
                <path d="M47.3469091,39.4286545 L45.7457455,35.4257455 L38.3403636,35.4257455 L36.7392,39.4286545 L32.7362909,39.4286545 L40.3418182,21.6157091 L43.9444364,21.6157091 L51.5499636,39.4286545 L47.3469091,39.4286545 Z M41.9429818,26.2190545 L39.5412364,32.0232727 L44.3447273,32.0232727 L41.9429818,26.2190545 Z" id="Shape"></path>
                <path d="M47.3469091,18.2132364 L45.7457455,14.2103273 L38.3403636,14.2103273 L36.7392,18.2132364 L32.7362909,18.2132364 L40.3418182,0.400290909 L43.9444364,0.400290909 L51.3498182,18.2132364 L47.3469091,18.2132364 Z M41.9429818,5.00363636 L39.5412364,10.8078545 L44.3447273,10.8078545 L41.9429818,5.00363636 Z" id="Shape"></path>
            </g>
        </g>
    </g>
</svg>