<?xml version="1.0" encoding="UTF-8"?>
<svg enable-background="new 0 0 477.859 477.859" version="1.1" viewBox="0 0 477.86 477.86" xml:space="preserve" xmlns="http://www.w3.org/2000/svg">
		<path d="m474.6 228.9c-28.995-38.012-63.834-71.186-103.22-98.287l-61.338 61.338c26.009 39.211 15.306 92.083-23.906 118.09-28.545 18.934-65.653 18.931-94.195-7e-3l-55.108 55.177c31.32 17.228 66.354 26.598 102.09 27.307 129.71 0 231.41-137.69 235.67-143.56 4.34-5.98 4.34-14.075-1e-3 -20.054z" fill="#CCCCCC" />
		<path d="m238.93 85.321c-129.71 0-231.41 137.71-235.67 143.58-4.341 5.98-4.341 14.074 0 20.053 28.995 38.012 63.834 71.186 103.22 98.287l61.338-61.338c-9.272-13.915-14.218-30.263-14.217-46.985-0.076-47.053 38.007-85.258 85.059-85.334 16.81-0.027 33.253 4.92 47.258 14.217l55.108-55.177c-31.319-17.226-66.352-26.597-102.09-27.305z" fill="#CCCCCC" />
		<path d="m106.48 347.29-67.345 67.294c-6.669 6.664-6.672 17.472-9e-3 24.141 6.664 6.669 17.472 6.672 24.141 9e-3l73.574-73.523c-10.438-5.418-20.574-11.4-30.361-17.921z" fill="#CCCCCC" />
		<path d="m438.74 39.13c-6.664-6.669-17.472-6.672-24.141-9e-3l-73.574 73.506c10.439 5.417 20.574 11.399 30.362 17.92l67.345-67.277c6.668-6.663 6.671-17.471 8e-3 -24.14z" fill="#CCCCCC" />
		<path d="m285.91 167.8-118.1 118.1c6.346 9.58 14.552 17.786 24.132 24.132l118.1-118.08c-6.35-9.581-14.555-17.793-24.132-24.15z" fill="#CCCCCC" />
</svg>
