<?xml version="1.0" encoding="UTF-8"?>
<svg enable-background="new 0 0 461.312 461.312" version="1.1" viewBox="0 0 461.31 461.31" xml:space="preserve" xmlns="http://www.w3.org/2000/svg">
		<path d="m230.66 156.42c-40.96 0-74.24 33.28-74.24 74.24s33.28 74.24 74.24 74.24 74.24-33.28 74.24-74.24-33.28-74.24-74.24-74.24zm-5.632 52.224c-9.216 0-16.896 7.68-16.896 16.896h-24.576c0.512-23.04 18.944-41.472 41.472-41.472v24.576z" fill="#CCCCCC" />
		<path d="m455.94 215.3c-25.088-31.232-114.69-133.12-225.28-133.12s-200.19 101.89-225.28 133.12c-7.168 8.704-7.168 21.504 0 30.72 25.088 31.232 114.69 133.12 225.28 133.12s200.19-101.89 225.28-133.12c7.168-8.704 7.168-21.504 0-30.72zm-225.28 122.88c-59.392 0-107.52-48.128-107.52-107.52s48.128-107.52 107.52-107.52 107.52 48.128 107.52 107.52-48.128 107.52-107.52 107.52z" fill="#CCCCCC" />
</svg>
